<svg width="80" height="80" fill="none" xmlns="http://www.w3.org/2000/svg"><path fill-rule="evenodd" clip-rule="evenodd" d="M63.217 1.24c-1.603.345-3.395 1.103-4.748 2.01-1.365.915-1.665 1.363-1.407 2.104.362 1.042 1.076 1.047 2.639.017 6.35-4.183 14.854-1.325 17.27 5.802 1.433 4.228.33 8.87-2.843 11.968-2.255 2.203-4.849 3.255-8.02 3.253-3.265-.001-5.707-1.024-8.06-3.375-1.171-1.17-1.544-1.669-2.136-2.859-.99-1.986-1.267-3.343-1.178-5.746.058-1.566.147-2.119.497-3.084.786-2.174.805-2.276.51-2.726-.299-.46-.85-.65-1.445-.5-.865.218-2.09 3.963-2.095 6.401 0 .684-.065 1.059-.179 1.059-.401 0-3.271 1.49-4.67 2.425-.826.551-2.171 1.639-2.99 2.416l-1.489 1.414-.924-.947c-5.87-6.012-14.31-8.128-21.104-5.29-2.468 1.03-5.685 3.636-5.685 4.603 0 .563.648 1.181 1.238 1.181.36 0 .736-.241 1.609-1.034a13.574 13.574 0 014.967-2.91c2.63-.862 6.137-.81 9.143.136 2.831.892 5.39 2.467 7.922 4.88 1.933 1.842 2.242 2.064 2.861 2.064.614 0 .95-.236 2.657-1.871.774-.741 1.896-1.713 2.495-2.16 1.038-.776 3.928-2.398 4.271-2.398.09 0 .32.476.51 1.058.754 2.299 1.933 4.17 3.686 5.851 1.659 1.592 3.129 2.494 5.241 3.215 2.994 1.022 6.855.884 9.643-.345.462-.204.888-.37.948-.37.141 0 .558 1.34.877 2.823.344 1.593.466 4.93.243 6.61-.466 3.499-1.745 6.697-3.758 9.393-.598.801-5.26 5.655-14.233 14.819l-3.846 3.928-1.994.367c-1.48.272-2.303.344-3.194.28-1.416-.103-11.31-1.916-11.752-2.153-.905-.486-.81-2.145.15-2.661.203-.109 1.43-.011 4.095.325 4.95.626 6.488.598 7.986-.142 3.107-1.534 3.731-5.167 1.34-7.793-1.32-1.45-2.618-1.976-6.85-2.778-3.393-.643-3.622-.666-6.563-.661-3.008.005-3.114.017-8.042.899-2.747.491-5.164.894-5.37.894-.279 0-.929-.575-2.508-2.215-2.565-2.665-3.68-4.117-4.613-6.007-1.34-2.715-1.962-5.202-2.081-8.322-.123-3.223.375-5.862 1.693-8.984.556-1.316.596-1.497.413-1.88-.3-.627-.957-.9-1.562-.649-.373.155-.59.444-.98 1.308C9 31.076 9.06 38.038 11.97 44.2c.85 1.8 2.322 3.907 3.862 5.53.79.832 1.633 1.73 1.873 1.996l.436.483-2.155.35c-1.185.191-2.264.38-2.397.417-.163.046-.305-.108-.438-.477-.108-.3-.378-.688-.6-.863-.387-.306-.612-.318-5.862-.318-5.677 0-5.876.021-6.412.685-.25.31-.27 1.146-.274 11.288L0 74.245l.531.533.532.533h5.446c5.102-.001 5.478-.02 5.94-.303.287-.175.58-.538.697-.863.139-.387.276-.537.443-.485 2.026.632 22.357 6.07 23.202 6.206 1.64.266 4.54.122 6.188-.307 2.305-.6 24.266-7.715 25.065-8.12.986-.502 2.114-1.644 2.602-2.636.319-.647.386-1.016.386-2.117 0-1.17-.053-1.422-.427-2.061-.864-1.475-2.127-2.165-4.184-2.285-.934-.054-1.653 0-2.422.185-1.503.359-7.938 1.66-7.977 1.612-.018-.021 3.266-3.418 7.298-7.549 4.031-4.13 7.68-7.952 8.107-8.49 4.467-5.634 5.855-13.869 3.514-20.851l-.368-1.098 1.053-1.02c1.913-1.85 3.233-4.012 3.927-6.429.483-1.683.594-4.677.238-6.44-1.127-5.586-5.383-9.893-10.902-11.032-1.499-.309-4.202-.303-5.672.012zm2.479 7.894c-.698.28-.838.729-.838 2.701v1.847h-1.854c-1.64 0-1.902.038-2.266.325-.504.398-.555 1.187-.114 1.735.28.348.419.374 2.254.422l1.955.052.052 1.962c.048 1.842.074 1.98.42 2.261.547.444 1.334.392 1.73-.113.286-.366.324-.63.324-2.274v-1.86h1.867c1.732 0 1.897-.027 2.292-.368.584-.504.584-1.27 0-1.775-.395-.34-.56-.367-2.292-.367h-1.867v-1.873c0-1.723-.028-1.904-.352-2.261-.417-.46-.852-.598-1.311-.414zM42.73 30.626c-.47.176-.664.47-2.961 4.503-1.193 2.093-2.226 3.786-2.295 3.763-.07-.024-.748-1.03-1.506-2.237-2.113-3.363-2.374-3.347-4.555.276L29.93 39.4h-3.521c-3.816 0-4.077.053-4.28.861-.113.457.237 1.248.619 1.395.139.053 2.078.097 4.31.097 4.758 0 4.212.222 5.688-2.31.514-.883.97-1.605 1.013-1.605.043 0 .676.964 1.406 2.143.73 1.179 1.465 2.271 1.632 2.428.365.344.993.368 1.437.057.178-.126 1.33-2 2.558-4.164 1.229-2.164 2.29-3.879 2.357-3.81.068.07 1.435 2.525 3.039 5.458 1.604 2.932 3.026 5.455 3.16 5.606.149.167.468.274.82.274.352 0 .673-.107.823-.274.135-.15 1.086-1.686 2.113-3.41l1.868-3.137 4.86-.079c4.341-.07 4.89-.107 5.132-.35.405-.407.356-1.346-.09-1.708-.338-.274-.717-.294-5.707-.294-4.034 0-5.407.048-5.601.196-.142.108-.954 1.376-1.804 2.819l-1.547 2.622-3.012-5.524c-1.656-3.037-3.113-5.639-3.236-5.78-.27-.31-.826-.438-1.236-.284zm-2.148 22.257c2.76.498 3.789.75 4.54 1.115 2.546 1.234 2.937 3.79.748 4.889-.89.446-1.921.452-5.314.03-5.93-.737-6.42-.713-7.611.368-1.551 1.405-1.805 3.66-.601 5.328.875 1.212 1.296 1.354 7.377 2.495 7.736 1.451 6.952 1.478 17.01-.582 8.223-1.684 9.867-1.914 10.828-1.51 1.101.46 1.41 1.69.731 2.902-.44.785-1.177 1.319-2.418 1.751-2.144.747-21.971 7.093-23.035 7.373-1.877.495-3.591.652-5.055.465-1.658-.212-.665.043-13.44-3.452l-11.058-3.026V55.558l.352-.081c.193-.045 3.34-.578 6.994-1.184a923.52 923.52 0 008.807-1.496c4.714-.855 5.976-.846 11.145.086zM10.784 63.314v9.645h-8.44V53.67h8.44v9.645z" fill="#E0004D"/></svg>