<svg width="80" height="80" fill="none" xmlns="http://www.w3.org/2000/svg"><path fill-rule="evenodd" clip-rule="evenodd" d="M19.222.189c-1.528.546-2.768 1.932-3.09 3.452-.113.54-.152 11.997-.123 36.85l.043 36.067.349.704c.525 1.059 1.173 1.758 2.106 2.274l.84.464h41.275l.84-.464c.934-.516 1.582-1.215 2.107-2.274l.349-.704.04-31.657L64 13.244l-.46-.46c-.583-.58-1.015-.58-1.596-.001l-.459.457v59.015H30.466l-.341.362c-.453.48-.444 1.208.022 1.644l.363.34h30.975v.642c0 .88-.394 1.633-1.076 2.055l-.572.355H39.985c-18.98 0-19.874-.013-20.324-.287-.734-.448-1.07-1.014-1.146-1.932l-.07-.832h7.587l.385-.384c.49-.49.49-1.09 0-1.58l-.385-.383h-7.55l.04-34.229c.04-33.953.043-34.232.355-34.645.7-.931.95-.987 4.669-1.042l3.413-.05v1.302c.001.716.08 1.584.174 1.928.238.862 1.296 1.854 2.227 2.088 1.013.254 20.236.254 21.25 0 .93-.234 1.989-1.226 2.226-2.088.095-.344.173-1.212.174-1.928V2.29l3.414.05c3.228.048 3.444.07 3.985.405.908.563 1.076 1.103 1.076 3.456 0 1.185.075 2.205.178 2.43.253.554.95.813 1.535.572.723-.299.84-.813.773-3.405-.05-1.992-.107-2.41-.405-3.016-.52-1.056-1.168-1.758-2.103-2.275l-.84-.464L40.22.01C23.335-.02 19.715.012 19.222.189zM50.5 3.61c0 .801-.072 1.37-.189 1.486-.272.272-20.38.272-20.653 0-.116-.115-.188-.685-.188-1.486V2.311H50.5V3.61zM38.54 23.792c-.396.318-.61.99-.45 1.41.242.637.598.783 2.212.908 7.278.562 12.915 6.182 13.478 13.438.072.92.209 1.658.336 1.812.335.402.87.545 1.377.369.726-.252.875-.713.765-2.368-.477-7.157-5.755-13.447-12.788-15.24-1.867-.477-4.527-.654-4.93-.329zM29 25.208c-1.026.37-3.625 2.028-4.163 2.655-.84.978-1.091 1.92-1.094 4.1-.002 2.024.165 2.853 1.012 5.042 1.342 3.47 5.044 8.274 9.413 12.216 5.349 4.826 10.11 7.115 14.291 6.87 1.87-.11 2.837-.442 3.684-1.265.72-.699 2.35-3.318 2.595-4.168.2-.693-.047-1.593-.597-2.187-.65-.701-6.736-4.672-7.33-4.783-1.162-.218-1.86.181-3.043 1.74l-.752.99-.914-.55c-2.747-1.65-6.568-5.463-8.122-8.105l-.546-.928 1.025-.793c1.416-1.096 1.68-1.49 1.68-2.508 0-.811-.055-.914-2.353-4.328-1.571-2.334-2.511-3.584-2.825-3.758-.694-.384-1.343-.463-1.962-.24zm2.804 5.383c1.047 1.568 1.903 2.883 1.903 2.92 0 .039-.492.426-1.093.863-1.257.91-1.575 1.413-1.575 2.485 0 .64.128.977.784 2.066 1.145 1.9 1.892 2.815 4.081 5.003 2.171 2.17 3.091 2.916 5.024 4.074 1.091.654 1.43.782 2.071.782 1.076 0 1.58-.317 2.493-1.57.438-.6.827-1.09.864-1.09.072 0 5.703 3.715 5.905 3.896.063.056-.281.759-.764 1.562-1.157 1.924-1.55 2.124-3.966 2.015-1.857-.083-2.899-.377-4.953-1.398-2.696-1.338-5.432-3.424-8.481-6.464-3.877-3.866-6.294-7.335-7.468-10.72-.248-.719-.372-1.507-.42-2.68-.099-2.413.098-2.798 2.024-3.948.805-.482 1.51-.825 1.566-.762.056.062.959 1.397 2.005 2.966zm6.672.408c-.573.492-.585 1.268-.028 1.747.293.251.685.366 1.478.432 3.594.3 6.464 3.162 6.765 6.745.067.79.182 1.182.434 1.474.751.87 2.12.226 2.12-1 0-.918-.474-2.892-.933-3.89a10.096 10.096 0 00-7.104-5.628c-1.679-.342-2.22-.318-2.732.12z" fill="#E0004D"/></svg>