<svg width="80" height="80" fill="none" xmlns="http://www.w3.org/2000/svg"><path fill-rule="evenodd" clip-rule="evenodd" d="M.362.386L0 .772v49.221l.386.364.385.362h24.66l.431.882c.57 1.163 2.21 3.313 3.399 4.457 1.317 1.268 2.13 2.386 2.817 3.876 1.055 2.285 1.118 2.764 1.234 9.309l.105 5.927.532 1.082a7.15 7.15 0 003.212 3.215c1.01.497 1.2.533 2.839.533 1.64 0 1.83-.036 2.839-.533a7.15 7.15 0 003.212-3.215l.532-1.082.105-5.927c.115-6.545.179-7.024 1.233-9.309.688-1.49 1.501-2.608 2.818-3.876 1.19-1.144 2.829-3.294 3.399-4.457l.431-.882h24.706l.363-.386.362-.386V.726l-.386-.363L79.228 0 64.99.001C51.341.002 50.692.016 49.364.335c-3.59.862-6.994 3.33-8.697 6.31-.321.56-.621 1.02-.667 1.02-.046 0-.346-.46-.667-1.02-1.703-2.98-5.106-5.448-8.697-6.31C29.308.016 28.66.002 14.987.001L.725 0 .362.386zM30.25 3.057c3.262.955 5.751 2.992 7.17 5.869 1.133 2.3 1.136 2.32 1.206 11.12l.064 7.949-.887.12c-1.395.189-3.54.862-4.851 1.523-4.185 2.108-7.044 5.524-8.388 10.022-.555 1.86-.733 5.473-.357 7.264l.236 1.126H2.667V2.655l13.291.054c12.078.05 13.383.082 14.292.348zM77.333 25.36v22.69H55.527l.192-.626c.114-.371.19-1.775.186-3.462-.005-2.6-.044-2.958-.456-4.301-1.136-3.695-3.435-6.873-6.449-8.912-1.862-1.26-4.658-2.343-6.792-2.633l-.875-.118v-7.146c0-4.19.075-7.68.18-8.438.353-2.543 1.368-4.591 3.168-6.393 1.733-1.735 3.874-2.828 6.192-3.16.574-.083 6.763-.16 13.752-.171l12.708-.02v22.69zM11.03 9.73c-.496.528-.486 1.441.023 1.92l.386.362h22.504l.362-.386c.497-.529.486-1.442-.023-1.92l-.386-.363H11.391l-.362.386zm40 0c-.497.528-.486 1.441.023 1.92l.386.362h22.504l.362-.386c.497-.529.486-1.442-.023-1.92l-.386-.363H51.391l-.362.386zM5.696 15.067c-.497.53-.486 1.442.023 1.92l.386.363h27.837l.362-.386c.497-.529.486-1.442-.023-1.92l-.386-.363H6.058l-.362.386zm40 0c-.497.53-.486 1.442.023 1.92l.386.363h27.837l.362-.386c.497-.529.486-1.442-.023-1.92l-.386-.363H46.058l-.362.386zm-40 5.339c-.497.53-.486 1.442.023 1.92l.386.363h27.837l.362-.386c.497-.529.486-1.442-.023-1.92l-.386-.363H6.058l-.362.386zm40 0c-.497.53-.486 1.442.023 1.92l.386.363h27.837l.362-.386c.497-.529.486-1.442-.023-1.92l-.386-.363H46.058l-.362.386zm-40 5.339c-.497.529-.486 1.442.023 1.92l.386.363h22.504l.362-.386c.497-.53.485-1.442-.023-1.92l-.386-.363H6.058l-.362.386zm45.333 0c-.497.529-.486 1.442.023 1.92l.386.363h22.504l.362-.386c.497-.53.486-1.442-.023-1.92l-.386-.363H51.391l-.362.386zm-45.333 5.34c-.497.529-.486 1.442.023 1.92l.386.363h17.17l.363-.386c.496-.53.485-1.442-.024-1.92l-.386-.363H6.058l-.362.386zm37.637.14c3.784.954 7.002 3.617 8.66 7.166 1.634 3.494 1.639 7.806.014 11.282-.707 1.513-1.383 2.436-3.086 4.216-.834.872-1.785 1.96-2.115 2.42-1.262 1.758-2.282 4.252-2.66 6.5l-.211 1.258h-7.87l-.212-1.263c-.27-1.606-.727-3-1.474-4.486-.855-1.703-1.426-2.475-3.216-4.345-2.404-2.512-3.304-4.01-4.009-6.674-.49-1.856-.494-4.661-.008-6.507 1.89-7.165 9.014-11.376 16.187-9.567zm13.03-.14c-.497.529-.486 1.442.023 1.92l.386.363h17.17l.362-.386c.497-.53.486-1.442-.023-1.92l-.386-.363h-17.17l-.363.386zM5.695 36.424c-.497.529-.486 1.442.023 1.92.384.361.421.363 7.638.363h7.252l.362-.386c.497-.53.485-1.442-.023-1.92-.384-.362-.422-.364-7.638-.364H6.058l-.362.387zm53.333 0c-.497.529-.486 1.442.023 1.92.384.361.422.363 7.638.363h7.252l.362-.386c.497-.53.486-1.442-.023-1.92-.384-.362-.421-.364-7.638-.364H59.39l-.362.387zm-15.987 6.661l-4.373 4.379-2.378-2.377c-2.093-2.09-2.444-2.376-2.926-2.376-.736 0-1.365.632-1.365 1.37 0 .494.324.876 3.043 3.595 2.786 2.786 3.093 3.043 3.626 3.043.542 0 .936-.353 5.624-5.047 4.566-4.573 5.04-5.1 5.04-5.597a1.39 1.39 0 00-1.367-1.368c-.497 0-.972.422-4.924 4.378zM44 68.071v1.335h-8v-2.67h8v1.335zm-.052 5.202c-.178 2.13-1.31 3.571-3.108 3.957-2.505.538-4.602-1.203-4.801-3.986l-.084-1.169h8.093l-.1 1.198z" fill="#E0004D"/></svg>