<svg width="80" height="80" fill="none" xmlns="http://www.w3.org/2000/svg"><path fill-rule="evenodd" clip-rule="evenodd" d="M48.904.194C38.11 1.835 29.33 9.82 26.656 20.426c-.503 1.998-.506 2.27-.024 2.752.704.704 1.823.336 2.053-.676.883-3.885 1.784-6.114 3.617-8.946C37.84 4.998 48.189.763 58.237 2.941c4.413.957 8.427 3.126 11.812 6.382 9.309 8.957 10.079 23.625 1.76 33.547-1.433 1.708-1.457 1.887-.517 3.717.834 1.62 1.871 2.984 3.085 4.052.512.451.93.885.93.964 0 .218-3.058-.002-4.14-.298-1.288-.352-2.927-1.2-4.094-2.117-.589-.463-1.135-.769-1.374-.769-.22 0-.904.256-1.523.567a26.69 26.69 0 01-5.416 2.002c-.85.206-1.693.453-1.872.55-.665.356-.616 1.533.084 1.992.384.251.484.252 1.677.006 1.667-.344 3.926-1.095 5.522-1.837l1.284-.597 1.14.76c1.272.847 2.982 1.582 4.594 1.974 3.061.744 8.269-.087 8.718-1.39.277-.803-.03-1.227-1.397-1.937-2.187-1.135-4.024-2.928-4.96-4.842l-.314-.642.72-.883c3.191-3.921 5.281-8.854 5.894-13.91.266-2.19.104-6.465-.322-8.468-1.515-7.143-5.702-13.38-11.641-17.34-2.662-1.777-6.294-3.278-9.688-4.006-2.058-.441-7.07-.562-9.295-.224zm-24.226 25.72c-9.852.879-18.48 7.114-22.493 16.252-1.6 3.645-2.278 7.355-2.137 11.697.197 6.043 1.99 11.012 5.706 15.804l1.02 1.314-.446.824c-.952 1.762-2.801 3.544-4.702 4.533C.25 77.054 0 77.286 0 77.846c0 .726.252 1.015 1.198 1.369 1.421.532 2.924.785 4.661.785 2.75 0 5.267-.74 7.516-2.21l1.202-.784 1.344.622c1.601.742 4.396 1.63 6.343 2.014 1.081.213 2.183.278 4.766.279 2.895 0 3.605-.05 5.144-.36 9.835-1.994 17.647-8.955 20.7-18.45 1.72-5.35 1.691-11.162-.083-16.674-.626-1.948-2.425-5.492-3.691-7.274-1.36-1.913-4.396-4.947-6.29-6.287a27.623 27.623 0 00-13.515-4.96c-2.064-.179-2.643-.179-4.617-.003zm22.734.377c-.937.936.108 2.498 1.292 1.93.237-.114.523-.4.637-.637.567-1.185-.993-2.23-1.93-1.293zm4.687 0c-.936.936.108 2.498 1.292 1.93.237-.114.524-.4.637-.637.568-1.185-.993-2.23-1.929-1.293zm4.687 0c-.936.936.109 2.498 1.292 1.93.237-.114.524-.4.637-.637.568-1.185-.992-2.23-1.929-1.293zm-25.07 2.425c14.35 2.931 23.019 17.13 18.993 31.112-2.313 8.034-8.759 14.45-16.882 16.806-2.25.653-4.138.904-6.797.906-3.941.003-7.04-.7-10.674-2.418-2.28-1.078-2.17-1.081-3.615.097-1.067.87-2.817 1.725-4.152 2.03-1.345.306-3.097.45-3.626.295l-.428-.124.935-.757c1.695-1.373 3.904-4.774 3.904-6.01 0-.363-.216-.728-.868-1.47C2.793 62.691.936 53.438 3.683 45.16c2.964-8.928 10.65-15.32 20.066-16.683 2.101-.304 5.858-.192 7.968.24zM14.869 47.442c-.294.302-.97 1.885-2.267 5.304-1.738 4.582-1.836 4.9-1.638 5.314.299.624.961.916 1.537.678.421-.175.62-.481 1.088-1.68l.2-.509h2c1.94 0 2.006.011 2.111.352.468 1.508 1.16 2.165 1.96 1.86.56-.213.83-.606.802-1.17-.014-.272-.834-2.605-1.824-5.185-1.912-4.984-2.145-5.393-3.078-5.393-.309 0-.616.148-.89.43zm8.554-.23c-.575.443-.61.782-.61 5.8v4.927l.377.438.377.44h2.318c2.301 0 2.323-.004 3.177-.484.99-.557 1.777-1.68 1.939-2.764.13-.871-.256-2.154-.852-2.834-.45-.513-.456-.54-.228-1.087.728-1.744-.294-3.916-2.097-4.457-.809-.242-4.078-.226-4.4.022zm13.905.087c-4.238 1.406-5.51 6.634-2.379 9.769 2.231 2.232 5.88 2.35 7.774.253.635-.703.697-1.176.233-1.767-.422-.537-1.356-.577-1.8-.077-.392.44-1.428.908-2.017.912-.932.005-1.71-.335-2.444-1.07-1.184-1.183-1.374-2.727-.515-4.193.906-1.547 2.752-2.038 4.578-1.218.837.375 1.01.404 1.412.238.62-.257.9-.943.641-1.57-.141-.34-.461-.6-1.175-.951-1.284-.633-2.994-.762-4.308-.326zm-9.837 2.44c.102.123.163.455.136.738-.061.636-.53.908-1.573.91l-.742.003v-1.876h.996c.675 0 1.057.072 1.183.224zm-11.183 2.94c.227.624.412 1.187.412 1.252-.001.064-.45.117-.998.117h-.996l.477-1.251c.263-.688.526-1.25.585-1.25.06 0 .293.51.52 1.133zm11.91 1.575c.502.585.476 1.123-.082 1.682-.424.425-.54.457-1.64.457H25.31v-2.691l1.265.058c1.157.052 1.297.094 1.64.494z" fill="#E0004D"/></svg>