<svg width="80" height="80" fill="none" xmlns="http://www.w3.org/2000/svg"><path fill-rule="evenodd" clip-rule="evenodd" d="M49.26 5.149c-4.531.52-8.555 3.403-10.563 7.57-1.052 2.184-1.242 3.068-1.245 5.804-.004 3.105.142 3.58 2.971 9.71 1.246 2.699 2.266 4.982 2.266 5.073 0 .09-.286.608-.636 1.15-.85 1.313-1.71 3.15-1.71 3.649 0 .82 1.07 1.412 1.945 1.076.137-.053.638-.856 1.112-1.784 2.297-4.495 5.863-7.507 10.47-8.843 8.178-2.373 17 1.8 20.344 9.624 1.05 2.457 1.242 3.493 1.247 6.738.004 3.223-.178 4.224-1.223 6.704-1.144 2.714-3.656 5.783-6.025 7.358l-.996.662h-4.502c-4.184 0-4.528.02-4.868.296-.278.226-.366.454-.366.957 0 .503.088.73.366.956.342.277.693.297 5.329.297h4.963l1.456-.97c4.337-2.89 7.354-7.513 8.37-12.826.333-1.734.332-5.12 0-6.868-.494-2.595-1.635-5.471-2.902-7.314l-.466-.678 2.353-5.096c2.92-6.327 3.054-6.76 3.05-9.871-.003-2.736-.194-3.623-1.243-5.796-2.08-4.31-6.025-7.096-10.75-7.594-1.765-.186-17.097-.173-18.747.016zm20.183 2.844c3.533 1.068 6.38 3.764 7.49 7.092.693 2.08.723 4.746.076 6.727-.215.657-4.05 9.129-4.208 9.297-.103.11-2.34-1.922-2.302-2.092.022-.096.806-1.826 1.744-3.846 1.996-4.3 2.207-4.938 2.207-6.66 0-4.259-3.139-7.5-7.595-7.843-1.554-.12-2.318.007-2.732.451-.397.427-.403 1.226-.013 1.708.273.337.456.379 2.077.465 2.078.11 2.851.386 3.963 1.412 1.31 1.21 1.946 3.016 1.642 4.664-.147.798-.837 2.43-2.8 6.623l-.783 1.672-1.578-.695c-5.123-2.257-10.7-2.276-15.877-.052-.831.357-1.536.623-1.566.592-.294-.301-3.406-7.481-3.528-8.14-.41-2.22.93-4.67 3.103-5.676.701-.324.995-.341 6.965-.417l6.234-.078.298-.37c.39-.482.388-1.343-.005-1.736-.167-.167-.541-.349-.832-.403-.29-.055-3.128-.072-6.306-.04-5.486.058-5.825.078-6.705.405-3.419 1.27-5.41 4.015-5.41 7.458 0 1.719.209 2.349 2.207 6.655.938 2.02 1.704 3.738 1.704 3.818 0 .08-.193.295-.43.478-.236.184-.75.63-1.142.994l-.712.66-1.86-4.025c-2.254-4.875-2.527-5.6-2.735-7.275-.418-3.37.697-6.5 3.206-8.994 1.059-1.053 1.546-1.404 2.754-1.985.807-.388 1.854-.781 2.328-.873a118.37 118.37 0 001.173-.233c.172-.036 4.537-.05 9.7-.032 8.233.03 9.494.066 10.248.294zM14.35 27.691c-2.7.416-5.47 2.045-8.147 4.79-2.044 2.095-3.206 3.863-4.438 6.751-1.34 3.14-1.88 5.987-1.745 9.192.134 3.17.83 5.367 2.396 7.563 1.268 1.78 2.017 2.242 8.277 5.112 1.808.828 3.743 1.623 4.301 1.765 2.093.534 6.078-.051 7.138-1.047.778-.732.27-2.177-.765-2.177-.227 0-.77.14-1.206.312-3.669 1.448-7.384.01-8.994-3.482-.568-1.233-1.021-3.127-1.021-4.269 0-.96-.355-1.767-.863-1.96-.606-.231-.786-.197-1.315.25-.444.373-.481.482-.476 1.37.006 1.195.326 3.013.747 4.253.176.516.285.973.243 1.015-.145.145-2.382-1.111-3.087-1.733-.958-.844-1.905-2.308-2.307-3.565-.473-1.48-.597-5.477-.23-7.428.71-3.777 2.645-7.511 5.254-10.14 3.23-3.256 6.215-4.515 9.203-3.884.66.14 1.659.466 2.218.725l1.017.471-.469.18c-.987.38-3.014 1.479-3.99 2.164-1.44 1.012-3.715 3.339-4.693 4.8-1.532 2.29-3.195 6.302-3.399 8.2-.077.718-.04.877.274 1.213.26.278.528.387.95.387.734 0 1.127-.452 1.398-1.608 1.22-5.182 4.877-10.133 9.045-12.243 1.035-.524 2.963-1.03 3.927-1.03 3.064 0 6.091 2.66 6.736 5.918.377 1.903.455 2.08 1.02 2.317.944.395 1.799-.242 1.794-1.339-.007-1.647-1.16-4.47-2.433-5.956-1.445-1.687-2.44-2.318-6.914-4.386-2.302-1.064-4.61-2.054-5.128-2.2-1.198-.34-3.18-.477-4.318-.301zm42.882 8.14c-2.599.41-5.075 2.114-6.476 4.455-.675 1.127-.725 1.813-.173 2.366.754.755 1.693.419 2.305-.824.49-.994 1.786-2.264 2.836-2.778 4.757-2.33 10.25 1.676 9.367 6.831-.513 2.993-2.57 4.97-5.748 5.522-.914.16-1.3.303-1.51.562-.407.504-.356 1.192.125 1.673.384.384.469.401 1.613.323 3.384-.232 6.64-2.806 7.749-6.125 1.12-3.356.292-6.814-2.243-9.36-2.141-2.15-4.959-3.1-7.845-2.644zm-20.254 5.005c-2.401.632-4.81 2.086-6.944 4.19l-1.313 1.293-3.303-1.813c-1.817-.997-3.554-1.849-3.861-1.893-1.577-.227-3.76 1.786-4.283 3.948-.22.908-.114 2.387.216 3.035.349.685.786.978 4.234 2.837a107.01 107.01 0 012.445 1.344l.334.207-.37 1.427c-1.651 6.363-.123 12.68 3.723 15.39.851.6 6.926 3.53 9.518 4.592 3.183 1.304 7.247.478 10.809-2.199 4.142-3.112 7.017-7.8 8.227-13.417.424-1.971.379-6.18-.085-7.89-.738-2.72-2.16-4.952-3.98-6.244-1.086-.77-9.495-4.697-10.595-4.946-1.127-.255-3.542-.185-4.772.139zm3.794 2.35c.884.167 3.012 1.073 3.012 1.281 0 .075-.103.136-.23.136-.417 0-3.122 1.479-4.154 2.271-1.43 1.099-2.94 2.645-4.067 4.167-1.087 1.468-2.761 4.768-3.351 6.605-1.198 3.733-1.323 8.189-.316 11.193.211.63.384 1.18.384 1.222 0 .042-.574-.212-1.276-.565-3.189-1.605-4.685-4.394-4.699-8.76-.01-3.146.634-5.778 2.16-8.832 2.25-4.497 5.97-7.833 9.624-8.626 1.22-.265 1.892-.286 2.913-.093zm-16.53 3.652l2.91 1.602-.841 1.488c-.463.819-.928 1.465-1.033 1.437-.105-.029-1.413-.726-2.908-1.55l-2.717-1.497.094-.683c.116-.845.606-1.834 1.07-2.16.193-.135.388-.245.433-.243.046.002 1.392.724 2.992 1.606zm24.935.065c2.249.783 3.875 2.766 4.648 5.666.416 1.561.45 4.536.074 6.473-1.03 5.306-3.932 9.864-8.026 12.605-2.188 1.465-4.105 1.965-6.235 1.624-1.527-.244-2.34-.678-3.535-1.886-1.743-1.762-2.299-3.278-2.436-6.655-.142-3.488.486-6.24 2.172-9.528 1.437-2.8 3.617-5.287 6.06-6.914 2.362-1.571 5.195-2.11 7.278-1.385z" fill="#E0004D"/></svg>