<svg width="80" height="80" fill="none" xmlns="http://www.w3.org/2000/svg"><path fill-rule="evenodd" clip-rule="evenodd" d="M10.461 39.248c-1.488.47-2.948 1.85-3.518 3.33-.132.34-1.758 7.442-3.615 15.782C.27 72.094-.044 73.635.004 74.709c.095 2.129 1.31 3.965 3.22 4.87l.89.421H75.88l.89-.422a5.647 5.647 0 003.226-4.815c.054-1.018-.279-2.655-3.339-16.427-2.177-9.795-3.536-15.595-3.78-16.125-.489-1.066-1.533-2.114-2.666-2.676l-.897-.446-17.873-.042-17.872-.042-.46.464c-.646.654-.647 1.587-.003 2.239l.457.462 17.094.003c9.878.003 17.357.066 17.718.15.71.166 1.567.998 1.746 1.695.062.243 1.42 6.306 3.02 13.473l2.907 13.032-5.062.079-5.061.079-.378.443c-.553.65-.52 1.57.08 2.175l.457.462h5.318c5.135 0 5.32.01 5.414.308.283.9-.706 2.39-1.787 2.693-.777.218-69.3.214-70.077-.004-.314-.088-.79-.387-1.058-.664-1.015-1.048-1.151-.143 2.49-16.507 1.811-8.147 3.364-15.079 3.45-15.407.232-.88.954-1.625 1.776-1.835.437-.11 2.47-.176 5.485-.176h4.79l.456-.462c.358-.362.457-.603.457-1.118 0-.515-.098-.756-.457-1.118l-.457-.462-5.367.011c-4.087.008-5.531.062-6.056.227zm16.526.22c-.42.379-.507.572-.507 1.122 0 1.343 1.657 2.101 2.621 1.198 1.592-1.49-.496-3.78-2.114-2.32zM14.343 51.793c-.358.362-.457.603-.457 1.118 0 .514.099.755.457 1.117.453.457.476.462 2.262.462h1.805l.044 6.016.044 6.016.438.38c.617.536 1.138.631 1.777.323.961-.463.99-.674.99-7.043V54.49h1.806c1.7 0 1.827-.022 2.182-.381.445-.45.62-1.038.48-1.607-.056-.224-.272-.58-.48-.79l-.377-.381H14.8l-.457.462zm19.374-.103c-.585.548-5.965 14.216-5.834 14.82.241 1.11 1.871 1.66 2.633.89.196-.198.627-1.051.958-1.896l.602-1.537h5.342l.613 1.59c.694 1.799 1.06 2.201 1.999 2.201.835 0 1.53-.676 1.53-1.487 0-.361-.96-3-2.665-7.318-2.922-7.408-3.04-7.622-4.194-7.622-.407 0-.723.115-.984.36zm11.896.103c-.35.353-.457.607-.457 1.08 0 .545.257.98 2.111 3.577 1.161 1.626 2.11 3.019 2.11 3.095 0 .076-.949 1.468-2.11 3.094-1.854 2.597-2.11 3.032-2.11 3.577 0 1.218 1.468 2.003 2.448 1.31.181-.129 1.123-1.347 2.093-2.707 1.632-2.29 1.78-2.452 1.983-2.176.12.164.892 1.241 1.714 2.395 1.726 2.422 2.043 2.72 2.89 2.72.98 0 1.72-.977 1.477-1.952-.051-.206-1.04-1.698-2.199-3.317l-2.106-2.944 2.106-2.944c1.158-1.62 2.148-3.112 2.199-3.317.242-.975-.497-1.953-1.477-1.953-.847 0-1.164.298-2.89 2.72a461.437 461.437 0 01-1.715 2.397c-.204.277-.35.117-1.99-2.18-.973-1.365-1.914-2.583-2.092-2.709-.56-.397-1.466-.29-1.985.234zm17.199 0l-.457.461v14.059l.395.474c.666.8 1.67.8 2.404.004.323-.35.328-.466.328-7.446v-7.09l-.457-.462c-.359-.362-.597-.462-1.107-.462-.509 0-.748.1-1.106.462zm-26.804 8.693c.096.307.039.322-1.239.322-.736 0-1.34-.053-1.34-.118s.291-.852.647-1.749l.648-1.63.591 1.426c.326.785.637 1.572.693 1.75zM59.82 71.06c-.42.38-.507.573-.507 1.122 0 1.344 1.658 2.101 2.622 1.198 1.592-1.49-.496-3.78-2.115-2.32z" fill="#E0004D"/></svg>