<svg width="200" height="100" fill="none" xmlns="http://www.w3.org/2000/svg"><path d="M83.088 26.811h19.205v2.731H86.086v9.074h13.477v2.737H86.086v9.3h16.398v2.73H83.088V26.811zm53.22.008h2.999v23.798h13.857v2.773h-16.856V26.82zm26.114 0h-2.999V53.39h2.999V26.82zM33.465 43.71l5.602-13.554 5.56 13.554H33.465zm7.105-16.913h-2.928L26.064 53.425h3.076l3.154-7.02h13.511l3.112 7.02h3.224l-11.57-26.628zm78.671 13.576h-7.169V29.577h7.211c4.304 0 7.303 1.976 7.303 5.243-.007 3.5-3.338 5.553-7.345 5.553zm10.266 13.031l-5.116-11.24c2.809-1.375 5.236-3.993 5.236-7.38 0-2.166-.762-4.028-2.061-5.32-1.679-1.672-4.783-2.66-8.057-2.66h-10.45v26.593h3.013v-10.33h9.518l4.678 10.337h3.239zM22.86 39.074H10.62v-9.497h16.863l.007-2.773H7.606v26.6h3.013V41.812h12.227l.014-2.738zM67.974 50.71c4.043 0 6.555-1.786 6.555-4.827 0-2.886-2.441-4.558-7.09-4.558h-7.875v9.384h8.41zm-1.072-12.038c3.626 0 6.138-1.637 6.138-4.826 0-2.625-2.095-4.332-5.912-4.332h-7.564v9.158h7.338zm-10.316-11.86h10.81c3.055 0 5.49.832 6.978 2.356 1.108 1.143 1.714 2.547 1.714 4.332 0 3.458-2.13 5.243-4.233 6.153 3.168.952 5.327 2.582 5.327 6.3 0 4.558-3.457 7.451-9.292 7.451H56.587V26.811zM190.348 46.42a10.953 10.953 0 01-8.911 4.571c-6.068 0-10.979-4.896-10.979-10.943s4.918-10.943 10.979-10.943c3.774 0 7.09 1.898 9.073 4.783l2.329-1.545c-2.477-3.64-6.654-6.04-11.402-6.04-7.614 0-13.794 6.153-13.794 13.745s6.18 13.737 13.794 13.737c4.642 0 8.734-2.286 11.232-5.785l-2.321-1.58zM9.102 72.017h.684c.706 0 1.171-.05 1.397-.148.346-.162.522-.487.522-.988 0-.515-.197-.847-.6-1.009-.246-.099-.67-.148-1.284-.148h-.72v2.293zm0-3.5h.656c.501 0 .86-.042 1.08-.134.331-.14.493-.423.493-.846 0-.416-.162-.699-.48-.84-.218-.092-.613-.141-1.185-.141h-.564v1.962zm-1.496-3.196h2.13c.848 0 1.461.064 1.85.198.409.141.726.388.945.74.197.304.29.657.29 1.059 0 .536-.163.953-.48 1.256-.184.17-.46.31-.82.423 1.158.261 1.737.925 1.737 1.976 0 .663-.226 1.206-.685 1.623-.388.36-.945.571-1.672.635-.29.02-.77.035-1.425.035h-1.87v-7.945zm9.843 3.175h3.146v1.306H17.45v2.152h3.591v1.305h-5.122V65.32h4.995v1.299H17.45v1.876zm9.744-3.175H28.9l1.665 3.161 1.651-3.16h1.68l-2.583 4.804v3.133h-1.531v-3.133l-2.59-4.805zm11.684 1.15c-.607 0-1.073.219-1.404.663-.395.537-.593 1.242-.593 2.117 0 .924.197 1.651.593 2.195.324.444.79.663 1.41.663.615 0 1.08-.219 1.405-.663.395-.537.593-1.256.593-2.16 0-.903-.198-1.622-.593-2.151-.325-.445-.797-.664-1.411-.664zm.007-1.305c.966 0 1.778.318 2.434.946.77.74 1.15 1.799 1.15 3.168 0 1.375-.38 2.434-1.15 3.174-.65.629-1.46.946-2.427.946-.98 0-1.792-.318-2.441-.946-.77-.747-1.15-1.82-1.15-3.238 0-.635.105-1.249.324-1.849a3.215 3.215 0 011.496-1.757 3.617 3.617 0 011.764-.444zm6.209.155h1.53v4.558c0 .635.043 1.073.128 1.313.106.303.296.536.564.684.261.141.565.212.918.212.846 0 1.354-.346 1.538-1.045.056-.218.084-.613.084-1.17v-4.559h1.531V69.9c0 .6-.028 1.03-.077 1.313-.12.67-.423 1.185-.924 1.566-.565.424-1.277.635-2.145.635-.868 0-1.58-.212-2.138-.635-.501-.374-.812-.896-.925-1.566-.049-.275-.077-.713-.077-1.313v-4.579h-.007zM56 68.927h.551c.621 0 1.051-.043 1.291-.134a.987.987 0 00.508-.417c.113-.176.17-.388.17-.62 0-.43-.17-.741-.508-.932-.19-.106-.452-.17-.783-.19a17.017 17.017 0 00-.79-.014H56v2.307zm-1.53-3.606h1.982c.734 0 1.285.029 1.659.092.642.106 1.143.395 1.495.86.31.41.466.904.466 1.483 0 1.044-.466 1.778-1.404 2.208l1.834 3.295h-1.778l-1.622-3.034h-1.094v3.034H54.47V65.32zm14.365 6.696h.684c.706 0 1.172-.05 1.397-.148.346-.162.523-.487.523-.988 0-.515-.198-.847-.6-1.009-.247-.099-.67-.148-1.284-.148h-.72v2.293zm0-3.5h.656c.501 0 .861-.042 1.08-.134.331-.14.494-.423.494-.846 0-.416-.163-.699-.48-.84-.219-.092-.614-.141-1.185-.141h-.572v1.962h.007zm-1.496-3.196h2.131c.847 0 1.46.064 1.849.198.409.141.726.388.945.74.198.304.29.657.29 1.059 0 .536-.163.953-.48 1.256-.184.17-.459.31-.819.423 1.157.261 1.736.925 1.736 1.976 0 .663-.226 1.206-.684 1.623-.389.36-.946.571-1.673.635-.289.02-.769.035-1.425.035h-1.87v-7.945zm9.843 3.175h3.154v1.306h-3.154v2.152h3.598v1.305h-5.13V65.32h4.996v1.299h-3.464v1.876zm11.381-.853h-1.468c-.02-.297-.106-.537-.254-.713-.233-.296-.578-.451-1.044-.451-.303 0-.564.07-.783.211-.247.163-.374.381-.374.65 0 .246.134.45.41.6.147.077.585.267 1.304.556.713.283 1.15.473 1.306.558.451.254.769.557.938.917.134.29.205.621.205.988 0 .804-.297 1.432-.896 1.884-.487.374-1.13.557-1.94.557-1.257 0-2.139-.402-2.66-1.213-.269-.417-.417-.96-.445-1.637h1.482c.098 1.023.649 1.538 1.636 1.538.374 0 .678-.078.918-.24a.704.704 0 00.345-.614c0-.303-.183-.557-.55-.755-.141-.078-.6-.275-1.376-.6-.832-.345-1.376-.663-1.644-.952a2.068 2.068 0 01-.55-1.447c0-.571.183-1.065.543-1.474.282-.318.656-.55 1.122-.699a3.34 3.34 0 011.044-.155c.621 0 1.157.141 1.609.416.522.31.86.748 1.016 1.306.05.211.085.465.106.769zm2.152-2.322h5.715v1.299h-2.096v6.639h-1.53v-6.64h-2.09v-1.298z" fill="#15161A"/></svg>