<svg width="129" height="32" fill="none" xmlns="http://www.w3.org/2000/svg"><path d="M52.438.345h13.341V2.2H54.522v6.163h9.362v1.86H54.52v6.316h11.39v1.855H52.438V.345zM89.41.35h2.083v16.165h9.627V18.4H89.41V.349zm18.138 0h-2.083v18.049h2.083V.349zM17.962 11.824l3.892-9.207 3.862 9.207h-7.754zM22.898.336h-2.034L12.82 18.423h2.137l2.191-4.768h9.387l2.161 4.768h2.24L22.898.336zm54.652 9.22h-4.98V2.223h5.009c2.99 0 5.073 1.342 5.073 3.561-.005 2.377-2.318 3.772-5.103 3.772zm7.131 8.852l-3.553-7.635c1.95-.934 3.637-2.712 3.637-5.013 0-1.471-.53-2.736-1.432-3.613C82.167 1.01 80.01.34 77.736.34h-7.26v18.063h2.094v-7.016h6.612l3.25 7.021h2.25zM10.597 8.674H2.093v-6.45h11.715L13.813.34H0v18.068h2.093v-7.874h8.494l.01-1.86zm31.345 7.904c2.809 0 4.554-1.213 4.554-3.278 0-1.96-1.696-3.096-4.926-3.096H36.1v6.374h5.842zm-.745-8.176c2.52 0 4.265-1.112 4.265-3.279 0-1.782-1.456-2.942-4.108-2.942H36.1V8.4h5.097zM34.031.345h7.51c2.122 0 3.813.566 4.847 1.601.77.776 1.191 1.73 1.191 2.943 0 2.348-1.48 3.56-2.94 4.179 2.2.647 3.7 1.754 3.7 4.28 0 3.096-2.402 5.06-6.456 5.06h-7.852V.346zm92.914 13.319a7.663 7.663 0 01-6.191 3.105c-4.215 0-7.626-3.326-7.626-7.433 0-4.107 3.416-7.433 7.626-7.433a7.68 7.68 0 016.304 3.25l1.617-1.05A9.62 9.62 0 00120.754 0c-5.288 0-9.582 4.18-9.582 9.336 0 5.157 4.294 9.331 9.582 9.331 3.226 0 6.069-1.553 7.804-3.93l-1.613-1.073zM1.04 31.052h.475c.49 0 .813-.034.97-.101.24-.11.363-.33.363-.671 0-.35-.137-.575-.417-.685-.171-.067-.465-.101-.892-.101h-.5v1.558zm0-2.378h.455c.348 0 .598-.028.75-.09.23-.096.343-.288.343-.576 0-.282-.113-.474-.333-.57-.152-.062-.427-.096-.824-.096H1.04v1.332zM0 26.505h1.48c.588 0 1.015.043 1.284.134.285.095.505.263.657.503.138.206.201.446.201.719 0 .364-.112.647-.333.853-.128.115-.319.21-.569.287.804.178 1.206.628 1.206 1.342 0 .45-.157.82-.475 1.103-.27.244-.657.388-1.162.431-.2.014-.534.024-.99.024H0v-5.397zm6.837 2.155h2.186v.887H6.837v1.462h2.495v.886H5.773v-5.392h3.47v.882H6.838v1.275zm6.768-2.157h1.187l1.156 2.148 1.147-2.148h1.167l-1.794 3.264v2.128h-1.064v-2.128l-1.799-3.264zm8.118.782c-.421 0-.745.148-.975.45-.274.364-.412.844-.412 1.438 0 .628.138 1.121.412 1.49.225.302.549.45.98.45.427 0 .75-.148.976-.45.274-.364.411-.853.411-1.466 0-.614-.137-1.102-.411-1.462-.226-.302-.554-.45-.98-.45zm.005-.887c.672 0 1.235.216 1.691.642.535.503.8 1.222.8 2.152 0 .935-.265 1.654-.8 2.157-.45.426-1.014.642-1.686.642-.681 0-1.245-.216-1.696-.642-.534-.508-.799-1.237-.799-2.2 0-.431.074-.848.226-1.256.196-.522.539-.92 1.039-1.193a2.558 2.558 0 011.225-.302zm4.312.105h1.063v3.096c0 .431.03.728.088.891a.829.829 0 00.392.465c.181.096.392.144.637.144.588 0 .941-.235 1.069-.71.039-.148.059-.416.059-.795v-3.096h1.063v3.115c0 .408-.02.7-.054.892-.083.455-.294.805-.642 1.064-.392.287-.887.431-1.49.431s-1.098-.144-1.485-.431a1.599 1.599 0 01-.642-1.064 5.414 5.414 0 01-.054-.892v-3.11h-.005zm7.578 2.449h.383c.431 0 .73-.028.897-.09a.682.682 0 00.352-.283.76.76 0 00.118-.422c0-.293-.117-.503-.353-.633-.132-.072-.313-.115-.544-.13-.093-.004-.28-.009-.549-.009h-.304v1.567zm-1.063-2.449h1.377c.51 0 .892.02 1.152.063.446.072.794.268 1.039.584.216.278.324.614.324 1.007 0 .71-.324 1.208-.976 1.5l1.275 2.238H35.51l-1.127-2.06h-.76v2.06h-1.068v-5.392zm9.98 4.549h.476c.49 0 .813-.034.97-.101.24-.11.363-.33.363-.671 0-.35-.137-.575-.417-.685-.171-.067-.465-.101-.892-.101h-.5v1.558zm0-2.378h.456c.348 0 .598-.028.75-.09.23-.096.343-.288.343-.576 0-.282-.113-.474-.333-.57-.152-.062-.427-.096-.824-.096h-.397v1.332h.005zm-1.039-2.17h1.48c.589 0 1.015.043 1.285.134.284.095.504.263.656.503.138.206.201.446.201.719 0 .364-.112.647-.333.853-.127.115-.319.21-.569.287.804.178 1.206.628 1.206 1.342 0 .45-.157.82-.475 1.103-.27.244-.657.388-1.162.431-.2.014-.534.024-.99.024h-1.299v-5.397zm6.841 2.156h2.191v.887h-2.19v1.462h2.499v.886h-3.564v-5.392h3.47v.882h-2.406v1.275zm7.901-.58h-1.02a.816.816 0 00-.176-.484c-.162-.201-.402-.307-.726-.307a.998.998 0 00-.544.144c-.171.11-.26.259-.26.44 0 .169.094.308.285.408.103.053.407.182.907.379.495.192.799.321.906.378.314.173.535.38.652.623.093.197.142.422.142.671 0 .547-.205.973-.622 1.28-.338.254-.784.379-1.348.379-.872 0-1.485-.273-1.848-.825-.186-.282-.29-.651-.309-1.111h1.03c.068.695.45 1.044 1.137 1.044.26 0 .47-.052.637-.163.157-.1.24-.24.24-.417 0-.206-.127-.378-.382-.512a17.076 17.076 0 00-.956-.408c-.578-.235-.956-.45-1.142-.647a1.387 1.387 0 01-.382-.982c0-.389.127-.724.377-1.002.196-.216.456-.374.78-.474.225-.072.465-.106.725-.106.431 0 .804.096 1.117.283.363.21.598.508.706.887.035.143.06.316.074.522zm1.496-1.577h3.97v.882H60.25v4.51h-1.064v-4.51h-1.45v-.882z" fill="#15161A"/></svg>