<svg width="20" height="20" fill="none" xmlns="http://www.w3.org/2000/svg"><path d="M11.714 11.557l-.722-.692.722.692zM8 3.857A4.143 4.143 0 0112.143 8h2A6.143 6.143 0 008 1.857v2zm0 8.286A4.143 4.143 0 013.857 8h-2A6.143 6.143 0 008 14.143v-2zM3.857 8A4.143 4.143 0 018 3.857v-2A6.143 6.143 0 001.857 8h2zm8.286 0c0 1.112-.437 2.12-1.15 2.865l1.443 1.384A6.125 6.125 0 0014.143 8h-2zm-1.15 2.865A4.128 4.128 0 018 12.143v2c1.744 0 3.32-.728 4.436-1.894l-1.444-1.384zm.004 1.39l3.51 3.61 1.369 1.409.403.415c.048.049.084.087.11.112.012.013.02.023.027.029l.007.007.002.002.718-.696.717-.697-.002-.003-.008-.007-.028-.029-.108-.112-.404-.415-1.37-1.409c-1.091-1.124-2.449-2.52-3.509-3.61l-1.434 1.393z" fill="#767A86"/></svg>