<svg width="20" height="21" fill="none" xmlns="http://www.w3.org/2000/svg"><g clip-path="url(#clip0_0_97)"><path fill-rule="evenodd" clip-rule="evenodd" d="M20 10.878c0 5.523-4.477 10-10 10-5.522 0-10-4.477-10-10 0-5.522 4.478-10 10-10 5.523 0 10 4.478 10 10zm-9.64-2.617c-.973.404-2.917 1.242-5.832 2.512-.473.188-.722.372-.744.552-.038.305.343.425.862.588l.219.07c.51.165 1.197.36 1.554.367.324.007.686-.127 1.085-.4 2.723-1.84 4.129-2.768 4.217-2.788.063-.014.15-.033.208.02.058.051.052.15.046.176-.038.161-1.533 1.552-2.308 2.272-.241.224-.412.383-.447.42-.079.08-.159.158-.235.233-.475.456-.83.8.02 1.36.408.269.735.491 1.06.713.356.242.711.484 1.171.786.117.076.229.156.338.233.414.296.787.56 1.246.52.267-.026.544-.277.684-1.026.33-1.771.982-5.608 1.133-7.19.01-.131.004-.263-.016-.393a.422.422 0 00-.144-.27.648.648 0 00-.387-.118c-.376.007-.953.208-3.73 1.363z" fill="#767A86"/></g><defs><clipPath id="clip0_0_97"><path fill="#fff" transform="translate(0 .878)" d="M0 0h20v20H0z"/></clipPath></defs></svg>