<svg width="20" height="21" fill="none" xmlns="http://www.w3.org/2000/svg"><path d="M9.998 7.544a3.342 3.342 0 00-3.335 3.334 3.342 3.342 0 003.335 3.335 3.342 3.342 0 003.334-3.335 3.342 3.342 0 00-3.335-3.334zm10.001 3.334c0-1.38.013-2.749-.065-4.127-.077-1.601-.443-3.022-1.613-4.193-1.174-1.173-2.592-1.536-4.193-1.614C12.747.867 11.378.88 10 .88 8.62.88 7.25.867 5.872.944c-1.6.078-3.022.443-4.193 1.614C.506 3.73.143 5.15.066 6.75-.012 8.13 0 9.5 0 10.878c0 1.379-.013 2.75.065 4.128.077 1.601.443 3.022 1.613 4.193 1.174 1.173 2.592 1.536 4.193 1.614 1.381.077 2.75.065 4.128.065 1.38 0 2.75.012 4.128-.065 1.6-.078 3.022-.443 4.193-1.614 1.173-1.173 1.536-2.592 1.613-4.193.08-1.378.065-2.747.065-4.128zM9.998 16.01a5.124 5.124 0 01-5.131-5.13 5.124 5.124 0 015.13-5.132 5.124 5.124 0 015.132 5.131 5.124 5.124 0 01-5.131 5.131zm5.34-9.273a1.197 1.197 0 01-1.198-1.199c0-.663.536-1.198 1.199-1.198a1.197 1.197 0 01.847 2.046 1.197 1.197 0 01-.847.35z" fill="#767A86"/></svg>