<svg width="20" height="21" fill="none" xmlns="http://www.w3.org/2000/svg"><g clip-path="url(#clip0_0_90)"><path d="M13.07.878H6.93C1.328.878 0 2.207 0 7.81v6.14c0 5.602 1.328 6.93 6.93 6.93h6.14c5.602 0 6.93-1.328 6.93-6.93V7.81C20 2.208 18.659.88 13.07.88zm3.076 14.268h-1.452c-.55 0-.72-.436-1.709-1.439-.86-.833-1.24-.944-1.452-.944-.3 0-.384.085-.384.495v1.312c0 .352-.11.563-1.042.563-1.54 0-3.249-.93-4.447-2.666-1.807-2.542-2.301-4.447-2.301-4.84 0-.212.084-.41.491-.41h1.455c.368 0 .508.169.651.563.72 2.077 1.918 3.896 2.412 3.896.183 0 .267-.085.267-.55V8.98c-.056-.99-.576-1.074-.576-1.426 0-.17.14-.338.364-.338h2.288c.31 0 .423.169.423.533v2.894c0 .313.14.423.225.423.182 0 .338-.11.677-.45 1.045-1.171 1.793-2.978 1.793-2.978.098-.212.267-.41.635-.41h1.455c.437 0 .534.224.437.537-.183.846-1.964 3.36-1.964 3.36-.153.253-.211.364 0 .647.157.212.665.651 1.003 1.045.622.706 1.1 1.299 1.227 1.709.144.406-.068.618-.478.618h.002z" fill="#767A86"/></g><defs><clipPath id="clip0_0_90"><path fill="#fff" transform="translate(0 .878)" d="M0 0h20v20H0z"/></clipPath></defs></svg>