<svg width="20" height="21" fill="none" xmlns="http://www.w3.org/2000/svg"><g clip-path="url(#clip0_0_92)"><path fill-rule="evenodd" clip-rule="evenodd" d="M0 10.934c0 4.972 3.611 9.106 8.334 9.944v-7.222h-2.5v-2.778h2.5V8.656c0-2.5 1.61-3.888 3.889-3.888.721 0 1.5.11 2.221.221v2.556h-1.277c-1.223 0-1.5.61-1.5 1.39v1.943h2.667l-.444 2.778h-2.223v7.222C16.39 20.04 20 15.907 20 10.934 20 5.404 15.5.878 10 .878S0 5.403 0 10.934z" fill="#767A86"/></g><defs><clipPath id="clip0_0_92"><path fill="#fff" transform="translate(0 .878)" d="M0 0h20v20H0z"/></clipPath></defs></svg>