<svg width="200" height="101" fill="none" xmlns="http://www.w3.org/2000/svg"><path d="M83.088 26.92h19.205v2.735H86.086v9.091h13.477v2.743H86.086v9.317h16.398v2.736H83.088V26.918zm53.22.007h2.999V50.77h13.857v2.779h-16.856V26.927zm26.114 0h-2.999v26.622h2.999V26.927zM33.465 43.85l5.602-13.58 5.56 13.58H33.465zm7.105-16.945h-2.928L26.064 53.584h3.076l3.154-7.034h13.511l3.112 7.034h3.224l-11.57-26.679zm78.671 13.601h-7.169V29.69h7.211c4.304 0 7.303 1.98 7.303 5.253-.007 3.506-3.338 5.563-7.345 5.563zm10.266 13.057l-5.116-11.261c2.809-1.379 5.236-4.001 5.236-7.395 0-2.17-.762-4.036-2.061-5.33-1.679-1.675-4.783-2.665-8.057-2.665h-10.45v26.644h3.013v-10.35h9.518l4.678 10.357h3.239zM22.86 39.205H10.62v-9.514h16.863l.007-2.779H7.606v26.65h3.013V41.949h12.227l.014-2.743zm45.114 11.657c4.043 0 6.555-1.788 6.555-4.835 0-2.891-2.441-4.566-7.09-4.566h-7.875v9.401h8.41zm-1.072-12.06c3.626 0 6.138-1.64 6.138-4.835 0-2.63-2.095-4.34-5.912-4.34h-7.564v9.176h7.338zM56.586 26.92h10.81c3.055 0 5.49.835 6.978 2.361 1.108 1.146 1.714 2.552 1.714 4.34 0 3.465-2.13 5.253-4.233 6.165 3.168.954 5.327 2.587 5.327 6.313 0 4.566-3.457 7.465-9.292 7.465H56.587V26.919zm133.762 19.644a10.947 10.947 0 01-8.911 4.581c-6.068 0-10.979-4.906-10.979-10.964 0-6.058 4.918-10.964 10.979-10.964 3.774 0 7.09 1.901 9.073 4.793l2.329-1.548c-2.477-3.648-6.654-6.052-11.402-6.052-7.614 0-13.794 6.165-13.794 13.77 0 7.607 6.18 13.764 13.794 13.764 4.642 0 8.734-2.29 11.232-5.796l-2.321-1.584zM9.102 72.21h.684c.706 0 1.171-.049 1.397-.148.346-.162.522-.487.522-.99 0-.515-.197-.848-.6-1.01-.246-.1-.67-.149-1.284-.149h-.72v2.298zm0-3.505h.656c.501 0 .86-.043 1.08-.135.331-.141.493-.424.493-.848 0-.417-.162-.7-.48-.841-.218-.092-.613-.142-1.185-.142h-.564v1.965zm-1.496-3.203h2.13c.848 0 1.461.064 1.85.198.409.141.726.389.945.742.197.304.29.658.29 1.06 0 .538-.163.955-.48 1.259-.184.17-.46.311-.82.424 1.158.262 1.737.926 1.737 1.98 0 .664-.226 1.208-.685 1.625-.388.36-.945.573-1.672.637-.29.02-.77.035-1.425.035h-1.87v-7.96zm9.843 3.181h3.146v1.308H17.45v2.156h3.591v1.308h-5.122v-7.953h4.995v1.3H17.45v1.881zm9.744-3.181H28.9l1.665 3.167 1.651-3.167h1.68l-2.583 4.814v3.139h-1.531v-3.139l-2.59-4.814zm11.684 1.152c-.607 0-1.073.22-1.404.665-.395.537-.593 1.244-.593 2.12 0 .927.197 1.655.593 2.2.324.445.79.664 1.41.664.615 0 1.08-.22 1.405-.665.395-.537.593-1.258.593-2.163 0-.905-.198-1.626-.593-2.156-.325-.445-.797-.665-1.411-.665zm.007-1.307c.966 0 1.778.318 2.434.947.77.742 1.15 1.803 1.15 3.174 0 1.378-.38 2.439-1.15 3.181-.65.63-1.46.947-2.427.947-.98 0-1.792-.318-2.441-.947-.77-.75-1.15-1.824-1.15-3.245 0-.636.105-1.25.324-1.852a3.22 3.22 0 011.496-1.76 3.612 3.612 0 011.764-.445zm6.209.155h1.53v4.567c0 .636.043 1.074.128 1.315.106.304.296.537.564.685.261.142.565.212.918.212.846 0 1.354-.346 1.538-1.046.056-.219.084-.615.084-1.173v-4.567h1.531v4.595c0 .6-.028 1.032-.077 1.315-.12.671-.423 1.188-.924 1.57-.565.423-1.277.635-2.145.635-.868 0-1.58-.212-2.138-.636-.501-.374-.812-.898-.925-1.57-.049-.275-.077-.713-.077-1.314v-4.588h-.007zM56 69.115h.551c.621 0 1.051-.043 1.291-.135a.988.988 0 00.508-.417c.113-.177.17-.389.17-.622 0-.431-.17-.742-.508-.933-.19-.106-.452-.17-.783-.191a17.017 17.017 0 00-.79-.014H56v2.312zm-1.53-3.613h1.982c.734 0 1.285.029 1.659.092.642.106 1.143.396 1.495.863.31.41.466.904.466 1.484 0 1.046-.466 1.781-1.404 2.213l1.834 3.3h-1.778l-1.622-3.039h-1.094v3.04H54.47v-7.953zm14.365 6.708h.685c.705 0 1.17-.049 1.397-.148.345-.162.522-.487.522-.99 0-.515-.198-.848-.6-1.01-.247-.1-.67-.149-1.284-.149h-.72v2.298zm0-3.505h.656c.501 0 .861-.043 1.08-.135.332-.141.494-.424.494-.848 0-.417-.162-.7-.48-.841-.219-.092-.614-.142-1.185-.142h-.572v1.965h.007zm-1.496-3.203h2.131c.847 0 1.46.064 1.849.198.409.141.727.389.945.742.198.304.29.658.29 1.06 0 .538-.163.955-.48 1.259-.184.17-.459.311-.819.424 1.157.262 1.736.926 1.736 1.98 0 .664-.226 1.208-.684 1.625-.389.36-.946.573-1.673.637-.289.02-.769.035-1.425.035h-1.87v-7.96zm9.843 3.181h3.154v1.308h-3.154v2.156h3.598v1.308h-5.13v-7.953h4.996v1.3h-3.464v1.881zm11.381-.855h-1.468c-.02-.297-.106-.537-.254-.714-.233-.297-.578-.453-1.044-.453-.303 0-.564.071-.783.213-.247.162-.374.381-.374.65 0 .247.134.452.41.6.147.079.585.27 1.304.56.713.282 1.15.473 1.306.558.451.254.769.558.938.919.134.29.205.622.205.99 0 .805-.297 1.434-.896 1.887-.487.374-1.13.558-1.94.558-1.257 0-2.139-.403-2.66-1.216-.269-.417-.417-.961-.445-1.64h1.482c.098 1.025.649 1.541 1.636 1.541.374 0 .678-.077.918-.24a.705.705 0 00.345-.615c0-.304-.183-.558-.55-.756-.141-.078-.6-.276-1.376-.601-.832-.347-1.376-.665-1.644-.954a2.074 2.074 0 01-.55-1.45c0-.572.183-1.067.543-1.477.282-.318.656-.552 1.122-.7.325-.106.67-.156 1.044-.156.621 0 1.157.142 1.609.418.522.31.86.749 1.016 1.307.05.212.085.467.106.77zm2.152-2.326h5.715v1.3h-2.096v6.653h-1.53v-6.652h-2.09v-1.3z" fill="#fff"/></svg>