<svg width="72" height="56" fill="none" xmlns="http://www.w3.org/2000/svg"><mask id="path-1-outside-1_7_458" maskUnits="userSpaceOnUse" x="0" y="0" width="72" height="56" fill="#000"><path fill="#fff" d="M0 0h72v56H0z"/><path d="M39.304 54.128H67.24v-28.08H56.584c-.288-7.776 4.464-12.528 14.112-13.536L68.392 2c-17.856.576-29.088 8.208-29.088 29.232v22.896zM1 54.128h28.08v-28.08H18.424c-.432-7.776 4.32-12.528 13.968-13.536L30.232 2C12.232 2.576 1 10.208 1 31.232v22.896z"/></mask><path d="M39.304 54.128h-1v1h1v-1zm27.936 0v1h1v-1h-1zm0-28.08h1v-1h-1v1zm-10.656 0l-1 .037.036.963h.964v-1zm14.112-13.536l.104.995 1.112-.117-.24-1.092-.976.214zM68.392 2l.977-.214-.178-.812L68.36 1l.032.999zM1 54.128H0v1h1v-1zm28.08 0v1h1v-1h-1zm0-28.08h1v-1h-1v1zm-10.656 0l-.998.056.052.944h.946v-1zm13.968-13.536l.104.995 1.098-.115-.223-1.081-.979.201zM30.232 2l.98-.201-.17-.825L30.2 1l.032.999zm9.072 53.128H67.24v-2H39.304v2zm28.936-1v-28.08h-2v28.08h2zm-1-29.08H56.584v2H67.24v-2zm-9.657.963c-.135-3.663.911-6.5 3.027-8.551 2.14-2.075 5.495-3.463 10.19-3.953l-.208-1.99c-4.953.518-8.798 2.01-11.374 4.507-2.6 2.52-3.786 5.948-3.633 10.061l1.998-.074zm14.09-13.713L69.369 1.786l-1.954.428 2.304 10.512 1.954-.428zM68.36 1c-9.04.291-16.591 2.371-21.883 7.209-5.314 4.859-8.173 12.336-8.173 23.022h2c0-10.338 2.757-17.189 7.523-21.546 4.788-4.378 11.78-6.402 20.597-6.687L68.36 1zM38.304 31.232v22.896h2V31.232h-2zM1 55.128h28.08v-2H1v2zm29.08-1v-28.08h-2v28.08h2zm-1-29.08H18.424v2H29.08v-2zm-9.657.945c-.204-3.66.81-6.49 2.904-8.536 2.12-2.072 5.473-3.46 10.169-3.95l-.208-1.99c-4.952.518-8.8 2.01-11.359 4.51-2.585 2.526-3.732 5.96-3.503 10.076l1.997-.11zM33.37 12.31L31.21 1.798l-1.958.402 2.16 10.512 1.958-.402zM30.2 1c-9.11.291-16.697 2.37-22.007 7.208C2.859 13.068 0 20.546 0 31.232h2C2 20.894 4.757 14.044 9.54 9.687 14.345 5.31 21.373 3.284 30.263 3L30.2 1.001zM0 31.232v22.896h2V31.232H0z" fill="url(#paint0_linear_7_458)" mask="url(#path-1-outside-1_7_458)"/><defs><linearGradient id="paint0_linear_7_458" x1="-4.76" y1="-20.48" x2="113.916" y2="29.715" gradientUnits="userSpaceOnUse"><stop stop-color="#E0004D"/><stop offset="1" stop-color="#E0004D" stop-opacity="0"/></linearGradient></defs></svg>